<svg width="12" height="14" viewBox="0 0 12 14" fill="none" xmlns="http://www.w3.org/2000/svg">
<path d="M6.42225 4.10938C5.97907 4.10938 5.56257 4.29062 5.24834 4.62187C5.09393 4.78418 4.97149 4.97708 4.88805 5.18945C4.80462 5.40183 4.76184 5.62951 4.76218 5.85938C4.76218 6.32656 4.9356 6.76562 5.24834 7.09688C5.40231 7.25965 5.58529 7.38873 5.78675 7.47668C5.98822 7.56464 6.20419 7.60973 6.42225 7.60938C6.86543 7.60938 7.28193 7.42656 7.59615 7.09688C7.91038 6.76562 8.08232 6.32656 8.08232 5.85938C8.08232 5.39219 7.91038 4.95312 7.59615 4.62187C7.28193 4.29062 6.86543 4.10938 6.42225 4.10938ZM11.5003 3.51719C11.2212 2.83888 10.8189 2.22472 10.316 1.70937C9.81144 1.18937 9.21663 0.776654 8.56403 0.49375C7.88518 0.196875 7.16483 0.046875 6.42225 0.046875C5.67966 0.046875 4.95931 0.196875 4.28046 0.492188C3.62385 0.778125 3.03541 1.1875 2.5285 1.70781C2.02592 2.22345 1.62363 2.83753 1.34422 3.51562C1.05519 4.21875 0.908447 4.96562 0.908447 5.73438C0.908447 6.8375 1.15894 7.93594 1.65103 8.99531C2.04678 9.84688 2.59964 10.6766 3.29628 11.4656C4.48649 12.8125 5.7345 13.6359 6.08875 13.8562C6.1893 13.9189 6.30399 13.9518 6.42077 13.9516C6.53638 13.9516 6.65051 13.9203 6.75278 13.8562C7.10703 13.6359 8.35504 12.8125 9.54525 11.4656C10.2419 10.6781 10.7948 9.84688 11.1905 8.99531C11.6856 7.9375 11.936 6.84062 11.936 5.73594C11.936 4.96719 11.7893 4.22031 11.5003 3.51719ZM6.42225 8.60938C4.98154 8.60938 3.81357 7.37813 3.81357 5.85938C3.81357 4.34062 4.98154 3.10938 6.42225 3.10938C7.86295 3.10938 9.03093 4.34062 9.03093 5.85938C9.03093 7.37813 7.86295 8.60938 6.42225 8.60938Z" fill="#232323"/>
</svg>
