<svg width="15" height="12" viewBox="0 0 15 12" fill="none" xmlns="http://www.w3.org/2000/svg">
<path d="M13.5882 0.5H1.25629C0.993938 0.5 0.781982 0.723437 0.781982 1V11C0.781982 11.2766 0.993938 11.5 1.25629 11.5H13.5882C13.8506 11.5 14.0625 11.2766 14.0625 11V1C14.0625 0.723437 13.8506 0.5 13.5882 0.5ZM12.3906 2.20156L7.71425 6.0375C7.59864 6.13281 7.43708 6.13281 7.32147 6.0375L2.64363 2.20156C2.626 2.18722 2.61306 2.16741 2.60664 2.14493C2.60022 2.12245 2.60064 2.09841 2.60783 2.07618C2.61502 2.05396 2.62862 2.03466 2.64674 2.021C2.66486 2.00734 2.68657 2 2.70885 2H12.3254C12.3477 2 12.3694 2.00734 12.3875 2.021C12.4056 2.03466 12.4192 2.05396 12.4264 2.07618C12.4336 2.09841 12.434 2.12245 12.4276 2.14493C12.4212 2.16741 12.4082 2.18722 12.3906 2.20156Z" fill="#232323"/>
</svg>
