<svg width="13" height="14" viewBox="0 0 13 14" fill="none" xmlns="http://www.w3.org/2000/svg">
<path d="M11.9597 2.59687L10.3812 0.934375C10.2698 0.816474 10.1375 0.722928 9.99175 0.65911C9.846 0.595292 9.68972 0.56246 9.5319 0.5625C9.21026 0.5625 8.90789 0.695313 8.68111 0.934375L6.98251 2.725C6.87067 2.84238 6.78193 2.98191 6.72139 3.13555C6.66085 3.2892 6.6297 3.45394 6.62974 3.62031C6.62974 3.95938 6.75573 4.27813 6.98251 4.51719L8.22459 5.82656C7.93385 6.50213 7.52962 7.1167 7.03142 7.64062C6.53447 8.16709 5.95153 8.59477 5.31058 8.90312L4.06849 7.59375C3.95714 7.47585 3.82479 7.3823 3.67904 7.31849C3.53329 7.25467 3.37701 7.22184 3.21919 7.22188C2.89755 7.22188 2.59518 7.35469 2.36841 7.59375L0.668317 9.38281C0.556338 9.50041 0.467523 9.6402 0.406981 9.79412C0.34644 9.94804 0.315368 10.1131 0.315553 10.2797C0.315553 10.6188 0.44154 10.9375 0.668317 11.1766L2.2439 12.8375C2.60556 13.2203 3.10506 13.4375 3.6179 13.4375C3.7261 13.4375 3.82986 13.4281 3.93213 13.4094C5.93014 13.0625 7.91185 11.9422 9.51115 10.2578C11.109 8.575 12.1702 6.4875 12.5037 4.375C12.6045 3.72969 12.4014 3.06562 11.9597 2.59687Z" fill="#232323"/>
</svg>
